<svg xmlns="http://www.w3.org/2000/svg" width="275.048" height="48" viewBox="0 0 275.048 48">
  <g id="nemophila" transform="translate(7639 6234)">
    <path id="パス_4928" data-name="パス 4928" d="M323.463,280.575v47.916h47.9V280.575Zm40.426,40.2h-3.97V291.8H334.9v28.974h-3.97V287.823h32.955Z" transform="translate(-7962.463 -6514.575)" fill="#004183"/>
    <path id="パス_2" data-name="パス 2" d="M364.319,299.92v20.573H368.1V303.708h8.285v16.785h3.79V299.92Z" transform="translate(-7945.394 -6506.494)" fill="#004183"/>
    <rect id="長方形_2" data-name="長方形 2" width="3.785" height="20.573" transform="translate(-7419.506 -6206.573)" fill="#004183"/>
    <path id="パス_3" data-name="パス 3" d="M426.192,303.707h8.287v13h-8.287Zm-3.783,16.786H438.27V299.92H422.409Z" transform="translate(-7921.126 -6506.494)" fill="#004183"/>
    <path id="パス_4" data-name="パス 4" d="M382.573,299.92v20.573h15.861v-3.787H386.357V312.1h12.077v-3.783H386.357v-4.609h12.077V299.92Z" transform="translate(-7937.769 -6506.494)" fill="#004183"/>
    <path id="パス_5" data-name="パス 5" d="M444.445,303.707h8.291v4.609h-8.291Zm12.075-3.787H440.657v20.573h3.783V312.1h12.078V299.921Z" transform="translate(-7913.503 -6506.494)" fill="#004183"/>
    <path id="パス_6" data-name="パス 6" d="M488.022,299.92v20.573h15.861v-3.784H491.807V299.92Z" transform="translate(-7893.715 -6506.494)" fill="#004183"/>
    <path id="パス_7" data-name="パス 7" d="M400.835,299.92v20.573h3.785V303.708h4.6v16.785H413V303.708h4.606v16.785h3.783V299.92Z" transform="translate(-7930.139 -6506.494)" fill="#004183"/>
    <path id="パス_8" data-name="パス 8" d="M472.559,299.92v8.4h-9.854v-8.4h-3.787v20.573h3.787V312.1h9.854v8.393h3.784V299.92Z" transform="translate(-7905.874 -6506.494)" fill="#004183"/>
    <path id="パス_9" data-name="パス 9" d="M510.061,303.707h8.293v4.609h-8.293Zm12.072-3.787H506.28v20.573h3.781V312.1h8.293v8.393h3.783V299.92Z" transform="translate(-7886.088 -6506.494)" fill="#004183"/>
  </g>
</svg>
